<svg width="128" height="128" viewBox="0 0 128 128" fill="none" xmlns="http://www.w3.org/2000/svg">
  <rect width="128" height="128" rx="28" fill="#F56C98"/>
  <rect x="58" y="57" width="42" height="55" rx="20" fill="#FCE463"/>
  <rect x="54" y="49" width="16" height="68" rx="8" fill="#4C32E6"/>
  <rect x="93" y="48" width="9" height="66" rx="4.5" fill="#4C32E6"/>
  <path d="M42 41C42 27.1929 53.1929 16 67 16H69C82.8071 16 94 27.1929 94 41V61C94 74.8071 82.8071 86 69 86H67C53.1929 86 42 74.8071 42 61V41Z" fill="#F5D3DB"/>
  <path d="M39 32C40.7887 21.9368 49.5204 14 60.5 14H76C87.4344 14 96.4572 22.5793 97 34L82 26L68 24L54 25.5L45 32L39 32Z" fill="#FCE463"/>
  <path d="M37 31C37 24.3726 42.3726 19 49 19H51L45 35H37V31Z" fill="#4C32E6"/>
  <path d="M76 16H79C90.0457 16 99 24.9543 99 36V78C99 82.9706 94.9706 87 90 87V87L88 53L76 16Z" fill="#FCE463"/>
  <path d="M34 44C34 39.5817 37.5817 36 42 36H45V56H42C37.5817 56 34 52.4183 34 48V44Z" fill="#E8B7C1" stroke="#4C32E6" stroke-width="3"/>
  <path d="M88 47C88 42.5817 91.5817 39 96 39H101C105.418 39 109 42.5817 109 47V49C109 53.4183 105.418 57 101 57H96C91.5817 57 88 53.4183 88 49V47Z" fill="#E8B7C1" stroke="#4C32E6" stroke-width="3"/>
  <path d="M48 36L44 74" stroke="#4C32E6" stroke-width="4" stroke-linecap="round"/>
  <path d="M78 32L82 77" stroke="#4C32E6" stroke-width="4" stroke-linecap="round"/>
  <path d="M50 45C53.5 47 58 47 62 46" stroke="#4C32E6" stroke-width="4" stroke-linecap="round"/>
  <path d="M71 45C74.5 47 79 47 83 45.5" stroke="#4C32E6" stroke-width="4" stroke-linecap="round"/>
  <circle cx="50" cy="60" r="4" fill="#F8B36E"/>
  <circle cx="79" cy="60" r="4" fill="#F8B36E"/>
  <rect x="60" y="72" width="10" height="4" rx="2" fill="#4C32E6"/>
  <path d="M102 27L113 22" stroke="#4C32E6" stroke-width="4" stroke-linecap="round"/>
  <path d="M105 37L118 35" stroke="#4C32E6" stroke-width="4" stroke-linecap="round"/>
  <path d="M45 19L41 12" stroke="#4C32E6" stroke-width="5" stroke-linecap="round"/>
  <path d="M52 17L49 9" stroke="#4C32E6" stroke-width="5" stroke-linecap="round"/>
</svg>
