<svg width="280" height="280" viewBox="0 0 280 280" fill="none" xmlns="http://www.w3.org/2000/svg">
  <rect width="280" height="280" rx="24" fill="#FFF"/>
  <rect x="18" y="18" width="244" height="244" rx="18" stroke="#E9DED2" stroke-width="8"/>
  <rect x="42" y="42" width="52" height="52" rx="10" fill="#0A0A0A"/>
  <rect x="52" y="52" width="32" height="32" rx="6" fill="#FFF6ED"/>
  <rect x="186" y="42" width="52" height="52" rx="10" fill="#0A0A0A"/>
  <rect x="196" y="52" width="32" height="32" rx="6" fill="#FFF6ED"/>
  <rect x="42" y="186" width="52" height="52" rx="10" fill="#0A0A0A"/>
  <rect x="52" y="196" width="32" height="32" rx="6" fill="#FFF6ED"/>
  <path d="M128 52H144V68H160V84H176V100H160V116H144V132H128V116H112V100H128V84H112V68H128V52Z" fill="#FF8C42"/>
  <path d="M116 152H132V168H116V152Z" fill="#0A0A0A"/>
  <path d="M132 168H148V184H132V168Z" fill="#0A0A0A"/>
  <path d="M148 152H164V168H148V152Z" fill="#0A0A0A"/>
  <path d="M170 176H194V200H170V176Z" fill="#0A0A0A"/>
  <path d="M108 194H156V210H108V194Z" fill="#E8DED2"/>
  <text x="140" y="242" fill="#6A6A68" font-family="'JetBrains Mono', monospace" font-size="16" text-anchor="middle">CONTACT PENDING</text>
</svg>
